<svg xmlns="http://www.w3.org/2000/svg" enable-background="new 0 0 2500 2500" viewBox="0 0 2500 2500"><path fill="#fad077" d="M694.544 2094.243h1141.769c179.357-158.218 292.523-389.722 292.523-647.677 0-476.874-386.543-863.417-863.417-863.417C788.595 583.149 402 969.693 402 1446.567c0 257.955 113.182 489.459 292.544 647.676z" opacity=".1"/><ellipse cx="1020.443" cy="1243.213" fill="#fad077" opacity=".1" rx="649.279" ry="783.738"/><ellipse cx="1428.166" cy="1160.404" fill="#fad077" opacity=".1" rx="625.18" ry="754.648"/><path fill="none" stroke="#efe1bf" stroke-dasharray="6.446" stroke-miterlimit="10" stroke-width="2.578" d="M1488.688 783.605c-107.264-61.541-247.443-45.922-353.114 18.316S955.323 972.304 905.076 1085.3c-70.634 158.843-96.713 347.896-22.013 504.869 77.853 163.6 259.58 266.001 440.751 267.714s356.695-89.103 476.682-224.856c75.425-85.336 132.712-203.055 97.391-311.331-25.159-77.125-93.294-133.747-167.422-166.706-104.927-46.654-227.221-52.914-336.363-17.217S1190 1250.785 1132.921 1350.425c-65.974 115.167-80.138 252.478-81.858 385.193-1.125 86.8-.52 182.394-57.057 248.266-43.543 50.733-114.952 72.439-181.419 65.222-66.466-7.217-128.031-40.45-178.943-83.783-115.481-98.289-180.903-253.997-165.601-404.869s112.732-291.91 250.419-355.463 310.796-45.032 429.15 49.779c107.376 86.017 162.077 219.51 230.681 338.766s170.55 237.747 307.514 250.754c124.322 11.807 244.017-72.728 301.332-183.68 57.316-110.952 61.343-242.532 42.41-365.97-14.071-91.743-41.857-184.905-103.45-254.338-55.927-63.045-138.159-101.989-222.37-105.311-84.211-3.322-169.255 29.023-229.974 87.467-83.334 80.21-116.009 199.962-126.012 315.193s-.988 231.892-17.648 346.35c-7.063 48.523-24.687 103.573-70.583 120.835-51.138 19.233-104.483-19.639-143.898-57.473a1969.965 1969.965 0 0 1-223.093-254.452c-81.326-110.659-153.072-236.49-157.773-373.739-4.177-121.96 47.305-243.068 131.62-331.287s199.494-144.303 319.638-165.685c79.523-14.153 164.818-12.947 236.977 23.349 68.447 34.429 118.883 97.428 153.744 165.656 43.38 84.901 65.709 182.222 52.479 276.641-13.231 94.419-64.36 185.066-144.586 236.58-80.226 51.514-189.551 59.004-271.369 10.056-88.268-52.807-132.604-163.254-122.003-265.565 10.601-102.31 69.495-195.29 146.378-263.619 58.57-52.053 129.103-92.16 205.925-107.599 76.822-15.439 160.069-4.793 226.563 36.662 84.227 52.511 133.552 148.155 154.558 245.161 43.579 201.244-26.031 423.179-176.738 563.485s-377.046 193.894-574.665 136.058"/><path fill="#2d2c2b" d="M1002.987 1072.939v112.207h-44.322v82.006H846.457v-82.006H617.834l-.094-112.207 192.81-303.616h132.967l-192.904 303.616h95.844V969.053h112.208v103.886zM1882.26 1072.939v112.207h-44.229v82.006h-112.208v-82.006h-228.716l-.094-112.207 192.81-303.616h132.966l-192.904 303.616h95.938V969.053h112.208v103.886zM1250.004 1413.443c-93.945 0-170.376-76.424-170.376-170.369v-156.777c0-93.945 76.431-170.376 170.376-170.376 93.945 0 170.369 76.431 170.369 170.376v156.777c-.001 93.945-76.425 170.369-170.369 170.369zm0-382.56c-30.559 0-55.415 24.856-55.415 55.415v156.777c0 30.552 24.856 55.407 55.415 55.407 30.552 0 55.407-24.856 55.407-55.407v-156.777c0-30.559-24.856-55.415-55.407-55.415z"/><path fill="#ffc00b" d="M799.986 1338.697h585.542v755.547H799.986z"/><path fill="#ffc00b" d="M799.986 1338.697h585.542v755.547H799.986z"/><path fill="#ffcd3c" d="M1385.528 1338.697h314.487v755.547h-314.487zM1385.528 1338.697l-77.979 201.777H722.007l77.979-201.777z"/><path fill="#ffc00b" d="m1700.014 1338.697 77.979 201.777h-314.486l-77.979-201.777z"/><path fill="#e47f0d" d="M1101.042 1650.14v444.092l-198.615.011-8.998-455.703 1.543.089 18.966 1.058 20.599 1.147 61.706 3.44 20.024 1.147 30.258 1.676z"/><path fill="#c46200" d="M902.427 2094.232H791.735l2.938-452.085 70.791 3.572 27.965-7.189z"/><path fill="#e47f0d" d="M902.427 2094.232H791.735l62.658-111.15z"/><path fill="#494949" d="M1056.857 1668.923c-.84-.074-1.787-.031-2.846.171a2.878 2.878 0 0 0-2.288 3.368 2.868 2.868 0 0 0 3.368 2.288c1.68-.325 2.098.186 2.276.399.832.994 4.319 7.708-8.907 42.601-4.899 12.917-10.948 28.081-18.669 42.614-9.811 18.463-20.894 32.935-32.052 41.857-12.331 9.859-24.6 12.422-32.012 6.684-9.105-7.048-12.106-26.757-8.025-52.714 1.799-11.448 4.663-23.34 7.429-34.84 2.741-11.375 5.574-23.141 7.41-34.593.99-6.142 1.331-11.004-.22-14.754-1.265-3.056-4.083-4.788-7.225-4.443a2.876 2.876 0 0 0-2.532 3.188c.179 1.577 1.584 2.703 3.188 2.532.676-.084 1.054.46 1.248.924 1.097 2.655.543 7.373-.142 11.639-1.806 11.235-4.611 22.89-7.324 34.161-2.796 11.61-5.686 23.613-7.523 35.292-2.117 13.474-5.363 46.119 10.19 58.161 9.626 7.447 24.62 4.866 39.136-6.741 14.865-11.884 26.444-30.298 33.538-43.65 7.873-14.816 14.009-30.189 18.971-43.276 15.091-39.818 9.703-46.234 7.931-48.344-.943-1.118-2.494-2.309-4.92-2.524zM732.557 1817.725a5.381 5.381 0 0 1-3.186-1.031c-2.7-1.969-5.931-7.523-2.863-32.94 1.11-9.196 2.61-20.056 5.328-30.87 2.453-9.759 6.999-23.509 14.726-33.595 7.686-10.022 17.229-14.147 24.892-10.747 12.237 5.412 15.393 27.184 16.182 36.294.677 7.816.726 15.999.774 23.912.046 7.648.094 15.556.713 23.02.14 1.666.466 5.565 1.622 7.136 1.355-.494 2.919.265 3.42 1.609.504 1.35-.117 2.926-1.467 3.431-2.241.833-4.663.071-6.153-1.946-1.874-2.547-2.335-6.392-2.618-9.797-.639-7.666-.688-15.676-.733-23.423-.046-7.808-.094-15.884-.754-23.494-1.477-17.046-6.372-29-13.096-31.975-5.29-2.328-12.591 1.261-18.642 9.153-5.69 7.421-10.465 18.38-13.809 31.692-2.646 10.534-4.116 21.189-5.206 30.225-3.023 25.03.598 27.987.754 28.099.168.13.754-.145.818-.173a2.604 2.604 0 0 1 3.459 1.279 2.606 2.606 0 0 1-1.279 3.458c-1.082.498-2.044.683-2.882.683z"/><path fill="#928749" d="m805.223 1783.218-13.503 311.025-137.195-26.648 6.672-271.712 20.216-1.758 18.178-1.598 56.092-4.954 18.698-1.638 17.259-1.518z"/><path fill="#2d2c2b" d="M805.214 1789.058h46.32l4.703 292.765-64.502 12.42z"/><path fill="#494949" d="M695.977 1811.921c-2.063 0-3.397-.96-4.085-1.648-2.531-2.521-5.03-8.962 2.473-35.657 2.728-9.701 6.151-21.12 10.865-32.265 4.253-10.06 11.415-24.052 21.373-33.574 9.854-9.416 20.682-12.24 28.267-7.378 12.146 7.793 11.906 31.621 11.239 41.502-.576 8.501-1.887 17.295-3.153 25.796-1.228 8.236-2.496 16.753-3.074 24.895-.14 1.986-.433 6.122.578 8.058.183.351.329.318.372.306 1.424-.26 2.789.629 3.077 2.037a2.611 2.611 0 0 1-2.037 3.076c-2.47.486-4.826-.685-6.036-3.008-1.406-2.692-1.477-6.28-1.154-10.839.591-8.343 1.874-16.959 3.115-25.295 1.253-8.399 2.547-17.086 3.107-25.379 1.261-18.655-2.048-32.398-8.85-36.76-5.366-3.448-13.946-.792-21.844 6.757-7.373 7.05-14.351 18.059-20.176 31.837-4.602 10.877-7.964 22.101-10.646 31.644-7.33 26.084-4.195 30.172-3.815 30.554.171.166.55.168 1.131.005a2.608 2.608 0 0 1 1.427 5.018 7.888 7.888 0 0 1-2.154.318zM1763.172 1775.382a6.209 6.209 0 0 0 3.674-1.189c3.113-2.27 6.84-8.675 3.301-37.984-1.281-10.605-3.01-23.127-6.144-35.597-2.828-11.254-8.07-27.109-16.98-38.739-8.863-11.556-19.867-16.314-28.704-12.393-14.111 6.241-17.75 31.347-18.66 41.852-.781 9.013-.837 18.449-.893 27.573-.053 8.819-.109 17.938-.822 26.546-.161 1.921-.537 6.417-1.871 8.229-1.562-.57-3.365.305-3.944 1.856-.581 1.557.135 3.374 1.692 3.956 2.584.96 5.377.082 7.095-2.244 2.161-2.937 2.693-7.371 3.019-11.298.737-8.84.793-18.076.846-27.01.053-9.004.109-18.317.869-27.092 1.703-19.656 7.348-33.441 15.101-36.871 6.1-2.684 14.52 1.454 21.497 10.555 6.561 8.558 12.067 21.195 15.923 36.545 3.051 12.146 4.746 24.434 6.003 34.854 3.486 28.863-.69 32.272-.869 32.401-.194.15-.869-.167-.943-.2a3.002 3.002 0 0 0-3.988 1.474 3.006 3.006 0 0 0 1.474 3.988c1.248.573 2.358.788 3.324.788z"/><path fill="#e47f0d" d="m1679.378 1735.59 15.572 358.653 158.203-30.729-7.694-313.32-23.311-2.027-20.962-1.843-64.681-5.712-21.561-1.889-19.902-1.751z"/><path fill="#2d2c2b" d="M1679.389 1742.324h-53.414l-5.423 337.596 74.38 14.323z"/><path fill="#494949" d="M1805.353 1768.689c2.379 0 3.918-1.107 4.711-1.9 2.919-2.907 5.8-10.335-2.852-41.118-3.145-11.186-7.092-24.355-12.528-37.206-4.904-11.6-13.163-27.735-24.646-38.715-11.362-10.857-23.849-14.114-32.595-8.508-14.006 8.987-13.729 36.463-12.96 47.858.664 9.803 2.176 19.944 3.636 29.747 1.416 9.498 2.878 19.318 3.545 28.707.161 2.291.499 7.06-.667 9.292-.211.405-.379.367-.429.352-1.642-.3-3.216.725-3.548 2.349a3.012 3.012 0 0 0 2.349 3.548c2.849.561 5.565-.79 6.96-3.468 1.621-3.104 1.703-7.242 1.33-12.499-.681-9.621-2.161-19.556-3.592-29.168-1.445-9.686-2.937-19.703-3.583-29.265-1.454-21.512 2.361-37.359 10.205-42.39 6.188-3.976 16.082-.913 25.189 7.791 8.502 8.129 16.549 20.825 23.265 36.713 5.307 12.543 9.183 25.485 12.276 36.49 8.452 30.078 4.837 34.792 4.399 35.233-.197.191-.634.194-1.304.006a3.008 3.008 0 0 0-1.645 5.785 9.15 9.15 0 0 0 2.484.366z"/></svg>